<?xml version="1.0" encoding="UTF-8" standalone="no"?>
<!DOCTYPE svg PUBLIC "-//W3C//DTD SVG 1.1//EN"
 "http://www.w3.org/Graphics/SVG/1.1/DTD/svg11.dtd">
<!-- Generated by graphviz version 2.36.0 (20140111.2315)
 -->
<!-- Title: G Pages: 1 -->
<svg width="1607pt" height="1053pt"
 viewBox="0.00 0.00 1607.20 1052.86" xmlns="http://www.w3.org/2000/svg" xmlns:xlink="http://www.w3.org/1999/xlink">
<g id="graph0" class="graph" transform="scale(1 1) rotate(0) translate(21.6 1031.26)">
<title>G</title>
<polygon fill="#111111" stroke="none" points="-21.6,21.6 -21.6,-1031.26 1585.6,-1031.26 1585.6,21.6 -21.6,21.6"/>
<!-- index.js -->
<g id="node1" class="node"><title>index.js</title>
<path fill="none" stroke="#c6c5fe" d="M56.3333,-814.16C56.3333,-814.16 7.66667,-814.16 7.66667,-814.16 3.83333,-814.16 0,-810.327 0,-806.493 0,-806.493 0,-798.827 0,-798.827 0,-794.993 3.83333,-791.16 7.66667,-791.16 7.66667,-791.16 56.3333,-791.16 56.3333,-791.16 60.1667,-791.16 64,-794.993 64,-798.827 64,-798.827 64,-806.493 64,-806.493 64,-810.327 60.1667,-814.16 56.3333,-814.16"/>
<text text-anchor="middle" x="32" y="-798.96" font-family="Arial" font-size="14.00" fill="#c6c5fe">index.js</text>
</g>
<!-- lib/bucketGenerators.js -->
<g id="node2" class="node"><title>lib/bucketGenerators.js</title>
<path fill="none" stroke="#cfffac" d="M252.333,-1009.16C252.333,-1009.16 107.667,-1009.16 107.667,-1009.16 103.833,-1009.16 100,-1005.33 100,-1001.49 100,-1001.49 100,-993.827 100,-993.827 100,-989.993 103.833,-986.16 107.667,-986.16 107.667,-986.16 252.333,-986.16 252.333,-986.16 256.167,-986.16 260,-989.993 260,-993.827 260,-993.827 260,-1001.49 260,-1001.49 260,-1005.33 256.167,-1009.16 252.333,-1009.16"/>
<text text-anchor="middle" x="180" y="-993.96" font-family="Arial" font-size="14.00" fill="#cfffac">lib/bucketGenerators.js</text>
</g>
<!-- index.js&#45;&gt;lib/bucketGenerators.js -->
<g id="edge1" class="edge"><title>index.js&#45;&gt;lib/bucketGenerators.js</title>
<path fill="none" stroke="#757575" d="M33.8987,-813.974C36.9804,-844.926 49.8956,-931.683 100,-976.66 101.759,-978.239 103.624,-979.702 105.572,-981.056"/>
<polygon fill="#757575" stroke="#757575" points="104.193,-984.303 114.592,-986.328 107.725,-978.26 104.193,-984.303"/>
</g>
<!-- lib/cluster.js -->
<g id="node3" class="node"><title>lib/cluster.js</title>
<path fill="none" stroke="#c6c5fe" d="M1207.33,-888.16C1207.33,-888.16 1132.67,-888.16 1132.67,-888.16 1128.83,-888.16 1125,-884.327 1125,-880.493 1125,-880.493 1125,-872.827 1125,-872.827 1125,-868.993 1128.83,-865.16 1132.67,-865.16 1132.67,-865.16 1207.33,-865.16 1207.33,-865.16 1211.17,-865.16 1215,-868.993 1215,-872.827 1215,-872.827 1215,-880.493 1215,-880.493 1215,-884.327 1211.17,-888.16 1207.33,-888.16"/>
<text text-anchor="middle" x="1170" y="-872.96" font-family="Arial" font-size="14.00" fill="#c6c5fe">lib/cluster.js</text>
</g>
<!-- index.js&#45;&gt;lib/cluster.js -->
<g id="edge2" class="edge"><title>index.js&#45;&gt;lib/cluster.js</title>
<path fill="none" stroke="#757575" d="M43.5579,-814.178C55.7813,-826.644 77.1774,-845.911 100,-854.66 238.137,-907.617 284.059,-878.66 432,-878.66 432,-878.66 432,-878.66 752,-878.66 882.084,-878.66 1034.99,-877.675 1114.6,-877.087"/>
<polygon fill="#757575" stroke="#757575" points="1114.9,-880.585 1124.87,-877.011 1114.84,-873.586 1114.9,-880.585"/>
</g>
<!-- lib/counter.js -->
<g id="node4" class="node"><title>lib/counter.js</title>
<path fill="none" stroke="#c6c5fe" d="M1026.83,-454.16C1026.83,-454.16 947.167,-454.16 947.167,-454.16 943.333,-454.16 939.5,-450.327 939.5,-446.493 939.5,-446.493 939.5,-438.827 939.5,-438.827 939.5,-434.993 943.333,-431.16 947.167,-431.16 947.167,-431.16 1026.83,-431.16 1026.83,-431.16 1030.67,-431.16 1034.5,-434.993 1034.5,-438.827 1034.5,-438.827 1034.5,-446.493 1034.5,-446.493 1034.5,-450.327 1030.67,-454.16 1026.83,-454.16"/>
<text text-anchor="middle" x="987" y="-438.96" font-family="Arial" font-size="14.00" fill="#c6c5fe">lib/counter.js</text>
</g>
<!-- index.js&#45;&gt;lib/counter.js -->
<g id="edge3" class="edge"><title>index.js&#45;&gt;lib/counter.js</title>
<path fill="none" stroke="#757575" d="M32.7418,-791.067C31.3604,-718.569 27.3962,-327.786 100,-239.66 214.013,-101.272 753.712,1.44664 896,-107.66 946.936,-146.718 975.448,-353.008 983.562,-420.945"/>
<polygon fill="#757575" stroke="#757575" points="980.133,-421.759 984.766,-431.287 987.087,-420.949 980.133,-421.759"/>
</g>
<!-- lib/defaultMetrics.js -->
<g id="node5" class="node"><title>lib/defaultMetrics.js</title>
<path fill="none" stroke="#c6c5fe" d="M240.333,-438.16C240.333,-438.16 119.667,-438.16 119.667,-438.16 115.833,-438.16 112,-434.327 112,-430.493 112,-430.493 112,-422.827 112,-422.827 112,-418.993 115.833,-415.16 119.667,-415.16 119.667,-415.16 240.333,-415.16 240.333,-415.16 244.167,-415.16 248,-418.993 248,-422.827 248,-422.827 248,-430.493 248,-430.493 248,-434.327 244.167,-438.16 240.333,-438.16"/>
<text text-anchor="middle" x="180" y="-422.96" font-family="Arial" font-size="14.00" fill="#c6c5fe">lib/defaultMetrics.js</text>
</g>
<!-- index.js&#45;&gt;lib/defaultMetrics.js -->
<g id="edge4" class="edge"><title>index.js&#45;&gt;lib/defaultMetrics.js</title>
<path fill="none" stroke="#757575" d="M37.3695,-791.407C57.7682,-738.874 143.774,-517.38 170.822,-447.722"/>
<polygon fill="#757575" stroke="#757575" points="174.147,-448.827 174.504,-438.238 167.622,-446.293 174.147,-448.827"/>
</g>
<!-- lib/gauge.js -->
<g id="node6" class="node"><title>lib/gauge.js</title>
<path fill="none" stroke="#c6c5fe" d="M1022.83,-495.16C1022.83,-495.16 951.167,-495.16 951.167,-495.16 947.333,-495.16 943.5,-491.327 943.5,-487.493 943.5,-487.493 943.5,-479.827 943.5,-479.827 943.5,-475.993 947.333,-472.16 951.167,-472.16 951.167,-472.16 1022.83,-472.16 1022.83,-472.16 1026.67,-472.16 1030.5,-475.993 1030.5,-479.827 1030.5,-479.827 1030.5,-487.493 1030.5,-487.493 1030.5,-491.327 1026.67,-495.16 1022.83,-495.16"/>
<text text-anchor="middle" x="987" y="-479.96" font-family="Arial" font-size="14.00" fill="#c6c5fe">lib/gauge.js</text>
</g>
<!-- index.js&#45;&gt;lib/gauge.js -->
<g id="edge5" class="edge"><title>index.js&#45;&gt;lib/gauge.js</title>
<path fill="none" stroke="#757575" d="M33.9268,-791.215C38.7411,-733.604 62.1351,-475.375 100,-405.66 156.449,-301.728 189.011,-276.074 296,-225.66 356.461,-197.17 845.816,-138.515 896,-182.66 990.207,-265.53 854.688,-363.841 932,-462.66 932.968,-463.898 934.02,-465.063 935.14,-466.159"/>
<polygon fill="#757575" stroke="#757575" points="933.319,-469.172 943.395,-472.445 937.56,-463.602 933.319,-469.172"/>
</g>
<!-- lib/histogram.js -->
<g id="node7" class="node"><title>lib/histogram.js</title>
<path fill="none" stroke="#c6c5fe" d="M1034.33,-725.16C1034.33,-725.16 939.667,-725.16 939.667,-725.16 935.833,-725.16 932,-721.327 932,-717.493 932,-717.493 932,-709.827 932,-709.827 932,-705.993 935.833,-702.16 939.667,-702.16 939.667,-702.16 1034.33,-702.16 1034.33,-702.16 1038.17,-702.16 1042,-705.993 1042,-709.827 1042,-709.827 1042,-717.493 1042,-717.493 1042,-721.327 1038.17,-725.16 1034.33,-725.16"/>
<text text-anchor="middle" x="987" y="-709.96" font-family="Arial" font-size="14.00" fill="#c6c5fe">lib/histogram.js</text>
</g>
<!-- index.js&#45;&gt;lib/histogram.js -->
<g id="edge6" class="edge"><title>index.js&#45;&gt;lib/histogram.js</title>
<path fill="none" stroke="#757575" d="M64.1426,-801.671C198.841,-797.222 731.885,-777.827 896,-744.66 905.977,-742.644 927.192,-735.39 946.52,-728.406"/>
<polygon fill="#757575" stroke="#757575" points="947.895,-731.63 956.091,-724.916 945.497,-725.053 947.895,-731.63"/>
</g>
<!-- lib/metricAggregators.js -->
<g id="node8" class="node"><title>lib/metricAggregators.js</title>
<path fill="none" stroke="#c6c5fe" d="M1453.83,-828.16C1453.83,-828.16 1306.17,-828.16 1306.17,-828.16 1302.33,-828.16 1298.5,-824.327 1298.5,-820.493 1298.5,-820.493 1298.5,-812.827 1298.5,-812.827 1298.5,-808.993 1302.33,-805.16 1306.17,-805.16 1306.17,-805.16 1453.83,-805.16 1453.83,-805.16 1457.67,-805.16 1461.5,-808.993 1461.5,-812.827 1461.5,-812.827 1461.5,-820.493 1461.5,-820.493 1461.5,-824.327 1457.67,-828.16 1453.83,-828.16"/>
<text text-anchor="middle" x="1380" y="-812.96" font-family="Arial" font-size="14.00" fill="#c6c5fe">lib/metricAggregators.js</text>
</g>
<!-- index.js&#45;&gt;lib/metricAggregators.js -->
<g id="edge7" class="edge"><title>index.js&#45;&gt;lib/metricAggregators.js</title>
<path fill="none" stroke="#757575" d="M64.2773,-814.006C75.3998,-817.501 88.1129,-820.893 100,-822.66 186.165,-835.471 208.888,-823.438 296,-823.66 417.777,-823.971 448.223,-824.187 570,-823.66 830.699,-822.532 1138.64,-819.36 1288.28,-817.701"/>
<polygon fill="#757575" stroke="#757575" points="1288.38,-821.2 1298.34,-817.589 1288.3,-814.201 1288.38,-821.2"/>
</g>
<!-- lib/pushgateway.js -->
<g id="node9" class="node"><title>lib/pushgateway.js</title>
<path fill="none" stroke="#c6c5fe" d="M237.833,-968.16C237.833,-968.16 122.167,-968.16 122.167,-968.16 118.333,-968.16 114.5,-964.327 114.5,-960.493 114.5,-960.493 114.5,-952.827 114.5,-952.827 114.5,-948.993 118.333,-945.16 122.167,-945.16 122.167,-945.16 237.833,-945.16 237.833,-945.16 241.667,-945.16 245.5,-948.993 245.5,-952.827 245.5,-952.827 245.5,-960.493 245.5,-960.493 245.5,-964.327 241.667,-968.16 237.833,-968.16"/>
<text text-anchor="middle" x="180" y="-952.96" font-family="Arial" font-size="14.00" fill="#c6c5fe">lib/pushgateway.js</text>
</g>
<!-- index.js&#45;&gt;lib/pushgateway.js -->
<g id="edge8" class="edge"><title>index.js&#45;&gt;lib/pushgateway.js</title>
<path fill="none" stroke="#757575" d="M35.8233,-814.07C42.5607,-838.94 61.9287,-898.38 100,-930.66 104.842,-934.766 110.352,-938.228 116.156,-941.147"/>
<polygon fill="#757575" stroke="#757575" points="114.909,-944.423 125.467,-945.301 117.761,-938.03 114.909,-944.423"/>
</g>
<!-- lib/registry.js -->
<g id="node10" class="node"><title>lib/registry.js</title>
<path fill="none" stroke="#c6c5fe" d="M1419.33,-908.16C1419.33,-908.16 1340.67,-908.16 1340.67,-908.16 1336.83,-908.16 1333,-904.327 1333,-900.493 1333,-900.493 1333,-892.827 1333,-892.827 1333,-888.993 1336.83,-885.16 1340.67,-885.16 1340.67,-885.16 1419.33,-885.16 1419.33,-885.16 1423.17,-885.16 1427,-888.993 1427,-892.827 1427,-892.827 1427,-900.493 1427,-900.493 1427,-904.327 1423.17,-908.16 1419.33,-908.16"/>
<text text-anchor="middle" x="1380" y="-892.96" font-family="Arial" font-size="14.00" fill="#c6c5fe">lib/registry.js</text>
</g>
<!-- index.js&#45;&gt;lib/registry.js -->
<g id="edge9" class="edge"><title>index.js&#45;&gt;lib/registry.js</title>
<path fill="none" stroke="#757575" d="M38.5247,-814.084C48.1396,-832.557 69.8441,-868.54 100,-884.66 230.733,-954.544 283.761,-916.66 432,-916.66 432,-916.66 432,-916.66 988,-916.66 1107.29,-916.66 1246.77,-907.261 1322.71,-901.35"/>
<polygon fill="#757575" stroke="#757575" points="1323.3,-904.814 1332.99,-900.54 1322.75,-897.836 1323.3,-904.814"/>
</g>
<!-- lib/summary.js -->
<g id="node11" class="node"><title>lib/summary.js</title>
<path fill="none" stroke="#c6c5fe" d="M1032.33,-766.16C1032.33,-766.16 941.667,-766.16 941.667,-766.16 937.833,-766.16 934,-762.327 934,-758.493 934,-758.493 934,-750.827 934,-750.827 934,-746.993 937.833,-743.16 941.667,-743.16 941.667,-743.16 1032.33,-743.16 1032.33,-743.16 1036.17,-743.16 1040,-746.993 1040,-750.827 1040,-750.827 1040,-758.493 1040,-758.493 1040,-762.327 1036.17,-766.16 1032.33,-766.16"/>
<text text-anchor="middle" x="987" y="-750.96" font-family="Arial" font-size="14.00" fill="#c6c5fe">lib/summary.js</text>
</g>
<!-- index.js&#45;&gt;lib/summary.js -->
<g id="edge10" class="edge"><title>index.js&#45;&gt;lib/summary.js</title>
<path fill="none" stroke="#757575" d="M64.1835,-804.393C176.932,-810.11 573.756,-825.453 896,-778.66 911.083,-776.47 927.259,-772.639 941.679,-768.673"/>
<polygon fill="#757575" stroke="#757575" points="942.685,-772.026 951.346,-765.924 940.77,-765.293 942.685,-772.026"/>
</g>
<!-- lib/validation.js -->
<g id="node12" class="node"><title>lib/validation.js</title>
<path fill="none" stroke="#cfffac" d="M1426.33,-590.16C1426.33,-590.16 1333.67,-590.16 1333.67,-590.16 1329.83,-590.16 1326,-586.327 1326,-582.493 1326,-582.493 1326,-574.827 1326,-574.827 1326,-570.993 1329.83,-567.16 1333.67,-567.16 1333.67,-567.16 1426.33,-567.16 1426.33,-567.16 1430.17,-567.16 1434,-570.993 1434,-574.827 1434,-574.827 1434,-582.493 1434,-582.493 1434,-586.327 1430.17,-590.16 1426.33,-590.16"/>
<text text-anchor="middle" x="1380" y="-574.96" font-family="Arial" font-size="14.00" fill="#cfffac">lib/validation.js</text>
</g>
<!-- index.js&#45;&gt;lib/validation.js -->
<g id="edge11" class="edge"><title>index.js&#45;&gt;lib/validation.js</title>
<path fill="none" stroke="#757575" d="M33.432,-791.362C36.6999,-708.283 58.5389,-193.609 100,-139.66 156.739,-65.8314 204.594,-83.4091 296,-65.6601 557.795,-14.8253 651.539,47.9206 896,-58.6601 1145.63,-167.493 1324.24,-475.993 1368.39,-558.278"/>
<polygon fill="#757575" stroke="#757575" points="1365.33,-559.97 1373.1,-567.163 1371.51,-556.689 1365.33,-559.97"/>
</g>
<!-- lib/cluster.js&#45;&gt;lib/metricAggregators.js -->
<g id="edge12" class="edge"><title>lib/cluster.js&#45;&gt;lib/metricAggregators.js</title>
<path fill="none" stroke="#757575" d="M1210.88,-865.309C1226.79,-860.769 1245.26,-855.483 1262,-850.66 1284.55,-844.163 1309.52,-836.912 1330.59,-830.781"/>
<polygon fill="#757575" stroke="#757575" points="1331.66,-834.116 1340.28,-827.96 1329.7,-827.395 1331.66,-834.116"/>
</g>
<!-- lib/cluster.js&#45;&gt;lib/registry.js -->
<g id="edge13" class="edge"><title>lib/cluster.js&#45;&gt;lib/registry.js</title>
<path fill="none" stroke="#757575" d="M1215.11,-880.902C1246.45,-883.915 1288.8,-887.987 1322.6,-891.237"/>
<polygon fill="#757575" stroke="#757575" points="1322.5,-894.744 1332.79,-892.217 1323.17,-887.776 1322.5,-894.744"/>
</g>
<!-- lib/util.js -->
<g id="node13" class="node"><title>lib/util.js</title>
<path fill="none" stroke="#cfffac" d="M1556.33,-727.16C1556.33,-727.16 1505.67,-727.16 1505.67,-727.16 1501.83,-727.16 1498,-723.327 1498,-719.493 1498,-719.493 1498,-711.827 1498,-711.827 1498,-707.993 1501.83,-704.16 1505.67,-704.16 1505.67,-704.16 1556.33,-704.16 1556.33,-704.16 1560.17,-704.16 1564,-707.993 1564,-711.827 1564,-711.827 1564,-719.493 1564,-719.493 1564,-723.327 1560.17,-727.16 1556.33,-727.16"/>
<text text-anchor="middle" x="1531" y="-711.96" font-family="Arial" font-size="14.00" fill="#cfffac">lib/util.js</text>
</g>
<!-- lib/cluster.js&#45;&gt;lib/util.js -->
<g id="edge14" class="edge"><title>lib/cluster.js&#45;&gt;lib/util.js</title>
<path fill="none" stroke="#757575" d="M1215.01,-875.333C1286.21,-872.42 1422.69,-863.421 1462,-836.66 1496.99,-812.837 1515.98,-764.728 1524.45,-736.884"/>
<polygon fill="#757575" stroke="#757575" points="1527.9,-737.548 1527.28,-726.971 1521.17,-735.626 1527.9,-737.548"/>
</g>
<!-- lib/counter.js&#45;&gt;lib/validation.js -->
<g id="edge17" class="edge"><title>lib/counter.js&#45;&gt;lib/validation.js</title>
<path fill="none" stroke="#757575" d="M1022.27,-453.986C1074.24,-471.23 1176.03,-505.279 1262,-535.66 1287.77,-544.768 1316.59,-555.356 1339.18,-563.747"/>
<polygon fill="#757575" stroke="#757575" points="1338.18,-567.108 1348.77,-567.315 1340.62,-560.547 1338.18,-567.108"/>
</g>
<!-- lib/counter.js&#45;&gt;lib/util.js -->
<g id="edge16" class="edge"><title>lib/counter.js&#45;&gt;lib/util.js</title>
<path fill="none" stroke="#757575" d="M1034.33,-431.362C1127.06,-411.708 1337.23,-382.427 1462,-484.66 1494.99,-511.69 1518.59,-642.364 1526.81,-694.307"/>
<polygon fill="#757575" stroke="#757575" points="1523.38,-695.049 1528.37,-704.397 1530.3,-693.98 1523.38,-695.049"/>
</g>
<!-- lib/metric.js -->
<g id="node14" class="node"><title>lib/metric.js</title>
<path fill="none" stroke="#c6c5fe" d="M1205.83,-649.16C1205.83,-649.16 1134.17,-649.16 1134.17,-649.16 1130.33,-649.16 1126.5,-645.327 1126.5,-641.493 1126.5,-641.493 1126.5,-633.827 1126.5,-633.827 1126.5,-629.993 1130.33,-626.16 1134.17,-626.16 1134.17,-626.16 1205.83,-626.16 1205.83,-626.16 1209.67,-626.16 1213.5,-629.993 1213.5,-633.827 1213.5,-633.827 1213.5,-641.493 1213.5,-641.493 1213.5,-645.327 1209.67,-649.16 1205.83,-649.16"/>
<text text-anchor="middle" x="1170" y="-633.96" font-family="Arial" font-size="14.00" fill="#c6c5fe">lib/metric.js</text>
</g>
<!-- lib/counter.js&#45;&gt;lib/metric.js -->
<g id="edge15" class="edge"><title>lib/counter.js&#45;&gt;lib/metric.js</title>
<path fill="none" stroke="#757575" d="M1029.14,-454.027C1033.79,-456.398 1038.21,-459.246 1042,-462.66 1068.87,-486.883 1057.77,-505.667 1078,-535.66 1099.44,-567.447 1130.06,-599.736 1149.73,-619.234"/>
<polygon fill="#757575" stroke="#757575" points="1147.35,-621.798 1156.94,-626.292 1152.25,-616.795 1147.35,-621.798"/>
</g>
<!-- lib/defaultMetrics.js&#45;&gt;lib/util.js -->
<g id="edge30" class="edge"><title>lib/defaultMetrics.js&#45;&gt;lib/util.js</title>
<path fill="none" stroke="#757575" d="M182.803,-415.331C189.628,-376.338 217.592,-246.568 296,-182.66 538.019,14.6042 673.772,-50.6601 986,-50.6601 986,-50.6601 986,-50.6601 1171,-50.6601 1470.67,-50.6601 1521.38,-580.026 1528.83,-694.146"/>
<polygon fill="#757575" stroke="#757575" points="1525.35,-694.628 1529.45,-704.397 1532.34,-694.203 1525.35,-694.628"/>
</g>
<!-- lib/metrics/eventLoopLag.js -->
<g id="node15" class="node"><title>lib/metrics/eventLoopLag.js</title>
<path fill="none" stroke="#c6c5fe" d="M836.333,-379.16C836.333,-379.16 665.667,-379.16 665.667,-379.16 661.833,-379.16 658,-375.327 658,-371.493 658,-371.493 658,-363.827 658,-363.827 658,-359.993 661.833,-356.16 665.667,-356.16 665.667,-356.16 836.333,-356.16 836.333,-356.16 840.167,-356.16 844,-359.993 844,-363.827 844,-363.827 844,-371.493 844,-371.493 844,-375.327 840.167,-379.16 836.333,-379.16"/>
<text text-anchor="middle" x="751" y="-363.96" font-family="Arial" font-size="14.00" fill="#c6c5fe">lib/metrics/eventLoopLag.js</text>
</g>
<!-- lib/defaultMetrics.js&#45;&gt;lib/metrics/eventLoopLag.js -->
<g id="edge18" class="edge"><title>lib/defaultMetrics.js&#45;&gt;lib/metrics/eventLoopLag.js</title>
<path fill="none" stroke="#757575" d="M205.039,-415.364C227.876,-405.245 263.463,-391.046 296,-384.66 414.989,-361.307 554.796,-359.872 647.504,-362.452"/>
<polygon fill="#757575" stroke="#757575" points="647.627,-365.957 657.728,-362.758 647.837,-358.96 647.627,-365.957"/>
</g>
<!-- lib/metrics/gc.js -->
<g id="node16" class="node"><title>lib/metrics/gc.js</title>
<path fill="none" stroke="#c6c5fe" d="M799.333,-736.16C799.333,-736.16 702.667,-736.16 702.667,-736.16 698.833,-736.16 695,-732.327 695,-728.493 695,-728.493 695,-720.827 695,-720.827 695,-716.993 698.833,-713.16 702.667,-713.16 702.667,-713.16 799.333,-713.16 799.333,-713.16 803.167,-713.16 807,-716.993 807,-720.827 807,-720.827 807,-728.493 807,-728.493 807,-732.327 803.167,-736.16 799.333,-736.16"/>
<text text-anchor="middle" x="751" y="-720.96" font-family="Arial" font-size="14.00" fill="#c6c5fe">lib/metrics/gc.js</text>
</g>
<!-- lib/defaultMetrics.js&#45;&gt;lib/metrics/gc.js -->
<g id="edge19" class="edge"><title>lib/defaultMetrics.js&#45;&gt;lib/metrics/gc.js</title>
<path fill="none" stroke="#757575" d="M182.662,-438.022C189.028,-477.075 215.675,-606.58 296,-664.66 412.088,-748.599 589.671,-744.102 684.673,-734.076"/>
<polygon fill="#757575" stroke="#757575" points="685.169,-737.543 694.722,-732.962 684.397,-730.585 685.169,-737.543"/>
</g>
<!-- lib/metrics/heapSizeAndUsed.js -->
<g id="node17" class="node"><title>lib/metrics/heapSizeAndUsed.js</title>
<path fill="none" stroke="#c6c5fe" d="M531.833,-656.16C531.833,-656.16 334.167,-656.16 334.167,-656.16 330.333,-656.16 326.5,-652.327 326.5,-648.493 326.5,-648.493 326.5,-640.827 326.5,-640.827 326.5,-636.993 330.333,-633.16 334.167,-633.16 334.167,-633.16 531.833,-633.16 531.833,-633.16 535.667,-633.16 539.5,-636.993 539.5,-640.827 539.5,-640.827 539.5,-648.493 539.5,-648.493 539.5,-652.327 535.667,-656.16 531.833,-656.16"/>
<text text-anchor="middle" x="433" y="-640.96" font-family="Arial" font-size="14.00" fill="#c6c5fe">lib/metrics/heapSizeAndUsed.js</text>
</g>
<!-- lib/defaultMetrics.js&#45;&gt;lib/metrics/heapSizeAndUsed.js -->
<g id="edge20" class="edge"><title>lib/defaultMetrics.js&#45;&gt;lib/metrics/heapSizeAndUsed.js</title>
<path fill="none" stroke="#757575" d="M185.111,-438.343C196.964,-470.298 234.353,-559.808 296,-605.66 310.966,-616.792 329.021,-624.751 347.014,-630.441"/>
<polygon fill="#757575" stroke="#757575" points="346.402,-633.909 356.983,-633.374 348.378,-627.194 346.402,-633.909"/>
</g>
<!-- lib/metrics/heapSpacesSizeAndUsed.js -->
<g id="node18" class="node"><title>lib/metrics/heapSpacesSizeAndUsed.js</title>
<path fill="none" stroke="#c6c5fe" d="M873.333,-338.16C873.333,-338.16 628.667,-338.16 628.667,-338.16 624.833,-338.16 621,-334.327 621,-330.493 621,-330.493 621,-322.827 621,-322.827 621,-318.993 624.833,-315.16 628.667,-315.16 628.667,-315.16 873.333,-315.16 873.333,-315.16 877.167,-315.16 881,-318.993 881,-322.827 881,-322.827 881,-330.493 881,-330.493 881,-334.327 877.167,-338.16 873.333,-338.16"/>
<text text-anchor="middle" x="751" y="-322.96" font-family="Arial" font-size="14.00" fill="#c6c5fe">lib/metrics/heapSpacesSizeAndUsed.js</text>
</g>
<!-- lib/defaultMetrics.js&#45;&gt;lib/metrics/heapSpacesSizeAndUsed.js -->
<g id="edge21" class="edge"><title>lib/defaultMetrics.js&#45;&gt;lib/metrics/heapSpacesSizeAndUsed.js</title>
<path fill="none" stroke="#757575" d="M194.816,-415.347C215.405,-399.228 256.015,-370.217 296,-357.66 398.073,-325.604 519.2,-318.788 610.658,-319.479"/>
<polygon fill="#757575" stroke="#757575" points="610.779,-322.98 620.816,-319.587 610.854,-315.981 610.779,-322.98"/>
</g>
<!-- lib/metrics/osMemoryHeap.js -->
<g id="node19" class="node"><title>lib/metrics/osMemoryHeap.js</title>
<path fill="none" stroke="#c6c5fe" d="M523.333,-597.16C523.333,-597.16 342.667,-597.16 342.667,-597.16 338.833,-597.16 335,-593.327 335,-589.493 335,-589.493 335,-581.827 335,-581.827 335,-577.993 338.833,-574.16 342.667,-574.16 342.667,-574.16 523.333,-574.16 523.333,-574.16 527.167,-574.16 531,-577.993 531,-581.827 531,-581.827 531,-589.493 531,-589.493 531,-593.327 527.167,-597.16 523.333,-597.16"/>
<text text-anchor="middle" x="433" y="-581.96" font-family="Arial" font-size="14.00" fill="#c6c5fe">lib/metrics/osMemoryHeap.js</text>
</g>
<!-- lib/defaultMetrics.js&#45;&gt;lib/metrics/osMemoryHeap.js -->
<g id="edge22" class="edge"><title>lib/defaultMetrics.js&#45;&gt;lib/metrics/osMemoryHeap.js</title>
<path fill="none" stroke="#757575" d="M189.477,-438.242C206.894,-461.24 249.037,-512.922 296,-541.66 317.763,-554.977 343.981,-564.695 367.565,-571.556"/>
<polygon fill="#757575" stroke="#757575" points="366.919,-575.009 377.491,-574.324 368.799,-568.266 366.919,-575.009"/>
</g>
<!-- lib/metrics/processCpuTotal.js -->
<g id="node20" class="node"><title>lib/metrics/processCpuTotal.js</title>
<path fill="none" stroke="#c6c5fe" d="M844.833,-140.16C844.833,-140.16 657.167,-140.16 657.167,-140.16 653.333,-140.16 649.5,-136.327 649.5,-132.493 649.5,-132.493 649.5,-124.827 649.5,-124.827 649.5,-120.993 653.333,-117.16 657.167,-117.16 657.167,-117.16 844.833,-117.16 844.833,-117.16 848.667,-117.16 852.5,-120.993 852.5,-124.827 852.5,-124.827 852.5,-132.493 852.5,-132.493 852.5,-136.327 848.667,-140.16 844.833,-140.16"/>
<text text-anchor="middle" x="751" y="-124.96" font-family="Arial" font-size="14.00" fill="#c6c5fe">lib/metrics/processCpuTotal.js</text>
</g>
<!-- lib/defaultMetrics.js&#45;&gt;lib/metrics/processCpuTotal.js -->
<g id="edge23" class="edge"><title>lib/defaultMetrics.js&#45;&gt;lib/metrics/processCpuTotal.js</title>
<path fill="none" stroke="#757575" d="M183.804,-415.174C193.009,-380.129 225.819,-274.024 296,-225.66 397.501,-155.713 449.799,-209.989 570,-182.66 617.691,-171.817 671.25,-155.156 707.452,-143.21"/>
<polygon fill="#757575" stroke="#757575" points="708.798,-146.45 717.183,-139.974 706.589,-139.808 708.798,-146.45"/>
</g>
<!-- lib/metrics/processHandles.js -->
<g id="node21" class="node"><title>lib/metrics/processHandles.js</title>
<path fill="none" stroke="#c6c5fe" d="M524.333,-299.16C524.333,-299.16 341.667,-299.16 341.667,-299.16 337.833,-299.16 334,-295.327 334,-291.493 334,-291.493 334,-283.827 334,-283.827 334,-279.993 337.833,-276.16 341.667,-276.16 341.667,-276.16 524.333,-276.16 524.333,-276.16 528.167,-276.16 532,-279.993 532,-283.827 532,-283.827 532,-291.493 532,-291.493 532,-295.327 528.167,-299.16 524.333,-299.16"/>
<text text-anchor="middle" x="433" y="-283.96" font-family="Arial" font-size="14.00" fill="#c6c5fe">lib/metrics/processHandles.js</text>
</g>
<!-- lib/defaultMetrics.js&#45;&gt;lib/metrics/processHandles.js -->
<g id="edge24" class="edge"><title>lib/defaultMetrics.js&#45;&gt;lib/metrics/processHandles.js</title>
<path fill="none" stroke="#757575" d="M188.983,-415.145C205.812,-391.837 247.408,-339.128 296,-313.66 305.116,-308.882 314.987,-304.975 325.106,-301.781"/>
<polygon fill="#757575" stroke="#757575" points="326.248,-305.094 334.867,-298.932 324.286,-298.374 326.248,-305.094"/>
</g>
<!-- lib/metrics/processMaxFileDescriptors.js -->
<g id="node22" class="node"><title>lib/metrics/processMaxFileDescriptors.js</title>
<path fill="none" stroke="#c6c5fe" d="M876.333,-535.16C876.333,-535.16 625.667,-535.16 625.667,-535.16 621.833,-535.16 618,-531.327 618,-527.493 618,-527.493 618,-519.827 618,-519.827 618,-515.993 621.833,-512.16 625.667,-512.16 625.667,-512.16 876.333,-512.16 876.333,-512.16 880.167,-512.16 884,-515.993 884,-519.827 884,-519.827 884,-527.493 884,-527.493 884,-531.327 880.167,-535.16 876.333,-535.16"/>
<text text-anchor="middle" x="751" y="-519.96" font-family="Arial" font-size="14.00" fill="#c6c5fe">lib/metrics/processMaxFileDescriptors.js</text>
</g>
<!-- lib/defaultMetrics.js&#45;&gt;lib/metrics/processMaxFileDescriptors.js -->
<g id="edge25" class="edge"><title>lib/defaultMetrics.js&#45;&gt;lib/metrics/processMaxFileDescriptors.js</title>
<path fill="none" stroke="#757575" d="M192.126,-437.969C211.305,-456.593 252.716,-493.103 296,-507.66 414.286,-547.442 559.798,-544.158 653.687,-535.848"/>
<polygon fill="#757575" stroke="#757575" points="654.104,-539.324 663.741,-534.921 653.462,-532.354 654.104,-539.324"/>
</g>
<!-- lib/metrics/processOpenFileDescriptors.js -->
<g id="node23" class="node"><title>lib/metrics/processOpenFileDescriptors.js</title>
<path fill="none" stroke="#c6c5fe" d="M562.333,-499.16C562.333,-499.16 303.667,-499.16 303.667,-499.16 299.833,-499.16 296,-495.327 296,-491.493 296,-491.493 296,-483.827 296,-483.827 296,-479.993 299.833,-476.16 303.667,-476.16 303.667,-476.16 562.333,-476.16 562.333,-476.16 566.167,-476.16 570,-479.993 570,-483.827 570,-483.827 570,-491.493 570,-491.493 570,-495.327 566.167,-499.16 562.333,-499.16"/>
<text text-anchor="middle" x="433" y="-483.96" font-family="Arial" font-size="14.00" fill="#c6c5fe">lib/metrics/processOpenFileDescriptors.js</text>
</g>
<!-- lib/defaultMetrics.js&#45;&gt;lib/metrics/processOpenFileDescriptors.js -->
<g id="edge26" class="edge"><title>lib/defaultMetrics.js&#45;&gt;lib/metrics/processOpenFileDescriptors.js</title>
<path fill="none" stroke="#757575" d="M208.924,-437.976C231.949,-446.915 265.641,-459.103 296,-466.66 307.982,-469.643 320.669,-472.277 333.289,-474.582"/>
<polygon fill="#757575" stroke="#757575" points="332.924,-478.072 343.38,-476.36 334.139,-471.178 332.924,-478.072"/>
</g>
<!-- lib/metrics/processRequests.js -->
<g id="node24" class="node"><title>lib/metrics/processRequests.js</title>
<path fill="none" stroke="#c6c5fe" d="M528.333,-258.16C528.333,-258.16 337.667,-258.16 337.667,-258.16 333.833,-258.16 330,-254.327 330,-250.493 330,-250.493 330,-242.827 330,-242.827 330,-238.993 333.833,-235.16 337.667,-235.16 337.667,-235.16 528.333,-235.16 528.333,-235.16 532.167,-235.16 536,-238.993 536,-242.827 536,-242.827 536,-250.493 536,-250.493 536,-254.327 532.167,-258.16 528.333,-258.16"/>
<text text-anchor="middle" x="433" y="-242.96" font-family="Arial" font-size="14.00" fill="#c6c5fe">lib/metrics/processRequests.js</text>
</g>
<!-- lib/defaultMetrics.js&#45;&gt;lib/metrics/processRequests.js -->
<g id="edge27" class="edge"><title>lib/defaultMetrics.js&#45;&gt;lib/metrics/processRequests.js</title>
<path fill="none" stroke="#757575" d="M185.379,-415.365C197.655,-385.367 235.514,-303.479 296,-266.66 303.48,-262.107 311.609,-258.448 320.048,-255.521"/>
<polygon fill="#757575" stroke="#757575" points="321.183,-258.834 329.69,-252.518 319.101,-252.15 321.183,-258.834"/>
</g>
<!-- lib/metrics/processStartTime.js -->
<g id="node25" class="node"><title>lib/metrics/processStartTime.js</title>
<path fill="none" stroke="#c6c5fe" d="M528.833,-458.16C528.833,-458.16 337.167,-458.16 337.167,-458.16 333.333,-458.16 329.5,-454.327 329.5,-450.493 329.5,-450.493 329.5,-442.827 329.5,-442.827 329.5,-438.993 333.333,-435.16 337.167,-435.16 337.167,-435.16 528.833,-435.16 528.833,-435.16 532.667,-435.16 536.5,-438.993 536.5,-442.827 536.5,-442.827 536.5,-450.493 536.5,-450.493 536.5,-454.327 532.667,-458.16 528.833,-458.16"/>
<text text-anchor="middle" x="433" y="-442.96" font-family="Arial" font-size="14.00" fill="#c6c5fe">lib/metrics/processStartTime.js</text>
</g>
<!-- lib/defaultMetrics.js&#45;&gt;lib/metrics/processStartTime.js -->
<g id="edge28" class="edge"><title>lib/defaultMetrics.js&#45;&gt;lib/metrics/processStartTime.js</title>
<path fill="none" stroke="#757575" d="M248.263,-432.02C269.991,-433.751 294.711,-435.721 318.819,-437.642"/>
<polygon fill="#757575" stroke="#757575" points="318.856,-441.156 329.102,-438.461 319.412,-434.178 318.856,-441.156"/>
</g>
<!-- lib/metrics/version.js -->
<g id="node26" class="node"><title>lib/metrics/version.js</title>
<path fill="none" stroke="#c6c5fe" d="M496.833,-417.16C496.833,-417.16 369.167,-417.16 369.167,-417.16 365.333,-417.16 361.5,-413.327 361.5,-409.493 361.5,-409.493 361.5,-401.827 361.5,-401.827 361.5,-397.993 365.333,-394.16 369.167,-394.16 369.167,-394.16 496.833,-394.16 496.833,-394.16 500.667,-394.16 504.5,-397.993 504.5,-401.827 504.5,-401.827 504.5,-409.493 504.5,-409.493 504.5,-413.327 500.667,-417.16 496.833,-417.16"/>
<text text-anchor="middle" x="433" y="-401.96" font-family="Arial" font-size="14.00" fill="#c6c5fe">lib/metrics/version.js</text>
</g>
<!-- lib/defaultMetrics.js&#45;&gt;lib/metrics/version.js -->
<g id="edge29" class="edge"><title>lib/defaultMetrics.js&#45;&gt;lib/metrics/version.js</title>
<path fill="none" stroke="#757575" d="M248.263,-421.032C279.979,-418.379 318.07,-415.192 351.327,-412.41"/>
<polygon fill="#757575" stroke="#757575" points="351.807,-415.882 361.48,-411.56 351.223,-408.906 351.807,-415.882"/>
</g>
<!-- lib/gauge.js&#45;&gt;lib/validation.js -->
<g id="edge33" class="edge"><title>lib/gauge.js&#45;&gt;lib/validation.js</title>
<path fill="none" stroke="#757575" d="M1003.36,-495.012C1020.61,-507.141 1049.86,-525.93 1078,-535.66 1157.16,-563.031 1253.82,-572.992 1315.88,-576.609"/>
<polygon fill="#757575" stroke="#757575" points="1315.74,-580.106 1325.91,-577.156 1316.12,-573.117 1315.74,-580.106"/>
</g>
<!-- lib/gauge.js&#45;&gt;lib/util.js -->
<g id="edge32" class="edge"><title>lib/gauge.js&#45;&gt;lib/util.js</title>
<path fill="none" stroke="#757575" d="M1030.58,-477.695C1120.47,-467.545 1332.01,-456.855 1462,-557.66 1505.87,-591.678 1521.88,-659.597 1527.36,-694.25"/>
<polygon fill="#757575" stroke="#757575" points="1523.91,-694.844 1528.79,-704.247 1530.84,-693.852 1523.91,-694.844"/>
</g>
<!-- lib/gauge.js&#45;&gt;lib/metric.js -->
<g id="edge31" class="edge"><title>lib/gauge.js&#45;&gt;lib/metric.js</title>
<path fill="none" stroke="#757575" d="M998.231,-495.093C1014.36,-512.828 1047.05,-547.635 1078,-573.66 1098.58,-590.966 1123.69,-608.376 1142.31,-620.66"/>
<polygon fill="#757575" stroke="#757575" points="1140.6,-623.721 1150.89,-626.255 1144.43,-617.859 1140.6,-623.721"/>
</g>
<!-- lib/histogram.js&#45;&gt;lib/validation.js -->
<g id="edge36" class="edge"><title>lib/histogram.js&#45;&gt;lib/validation.js</title>
<path fill="none" stroke="#757575" d="M994.705,-702.28C1007.75,-681.293 1038.76,-636.801 1078,-616.66 1153.02,-578.157 1251.92,-572.949 1315.5,-574.451"/>
<polygon fill="#757575" stroke="#757575" points="1315.68,-577.958 1325.78,-574.76 1315.89,-570.961 1315.68,-577.958"/>
</g>
<!-- lib/histogram.js&#45;&gt;lib/util.js -->
<g id="edge35" class="edge"><title>lib/histogram.js&#45;&gt;lib/util.js</title>
<path fill="none" stroke="#757575" d="M1042.2,-713.86C1150.2,-714.259 1390.2,-715.144 1487.65,-715.504"/>
<polygon fill="#757575" stroke="#757575" points="1487.71,-719.004 1497.72,-715.541 1487.73,-712.004 1487.71,-719.004"/>
</g>
<!-- lib/histogram.js&#45;&gt;lib/metric.js -->
<g id="edge34" class="edge"><title>lib/histogram.js&#45;&gt;lib/metric.js</title>
<path fill="none" stroke="#757575" d="M1005.66,-702.249C1023.38,-691.19 1051.74,-674.536 1078,-663.66 1090.1,-658.649 1103.48,-654.238 1116.18,-650.54"/>
<polygon fill="#757575" stroke="#757575" points="1117.5,-653.804 1126.18,-647.728 1115.6,-647.066 1117.5,-653.804"/>
</g>
<!-- lib/metricAggregators.js&#45;&gt;lib/util.js -->
<g id="edge40" class="edge"><title>lib/metricAggregators.js&#45;&gt;lib/util.js</title>
<path fill="none" stroke="#757575" d="M1401.02,-805.366C1417.65,-795.792 1441.77,-781.456 1462,-767.66 1477.81,-756.877 1494.93,-743.783 1508.03,-733.432"/>
<polygon fill="#757575" stroke="#757575" points="1510.36,-736.046 1516.01,-727.078 1506,-730.571 1510.36,-736.046"/>
</g>
<!-- lib/pushgateway.js&#45;&gt;lib/registry.js -->
<g id="edge59" class="edge"><title>lib/pushgateway.js&#45;&gt;lib/registry.js</title>
<path fill="none" stroke="#757575" d="M245.853,-956.472C351.48,-956.182 567.248,-955.66 750,-955.66 750,-955.66 750,-955.66 988,-955.66 1110.28,-955.66 1141.85,-953.382 1262,-930.66 1287.14,-925.905 1314.65,-918.052 1336.67,-911.09"/>
<polygon fill="#757575" stroke="#757575" points="1337.93,-914.363 1346.38,-907.969 1335.78,-907.699 1337.93,-914.363"/>
</g>
<!-- lib/registry.js&#45;&gt;lib/util.js -->
<g id="edge60" class="edge"><title>lib/registry.js&#45;&gt;lib/util.js</title>
<path fill="none" stroke="#757575" d="M1427.4,-889.012C1439.76,-885.159 1452.35,-879.366 1462,-870.66 1501.99,-834.584 1519.57,-770.716 1526.34,-737.342"/>
<polygon fill="#757575" stroke="#757575" points="1529.82,-737.753 1528.23,-727.278 1522.94,-736.457 1529.82,-737.753"/>
</g>
<!-- lib/summary.js&#45;&gt;lib/validation.js -->
<g id="edge64" class="edge"><title>lib/summary.js&#45;&gt;lib/validation.js</title>
<path fill="none" stroke="#757575" d="M1030.2,-743.348C1085.19,-727.799 1183.6,-697.196 1262,-657.66 1296.93,-640.046 1333.78,-613.687 1356.59,-596.334"/>
<polygon fill="#757575" stroke="#757575" points="1358.81,-599.035 1364.6,-590.162 1354.54,-593.489 1358.81,-599.035"/>
</g>
<!-- lib/summary.js&#45;&gt;lib/util.js -->
<g id="edge63" class="edge"><title>lib/summary.js&#45;&gt;lib/util.js</title>
<path fill="none" stroke="#757575" d="M1040.13,-754.466C1127.67,-753.57 1309.57,-749.259 1462,-729.66 1470.51,-728.566 1479.54,-726.999 1488.14,-725.306"/>
<polygon fill="#757575" stroke="#757575" points="1488.91,-728.723 1498,-723.281 1487.5,-721.866 1488.91,-728.723"/>
</g>
<!-- lib/summary.js&#45;&gt;lib/metric.js -->
<g id="edge61" class="edge"><title>lib/summary.js&#45;&gt;lib/metric.js</title>
<path fill="none" stroke="#757575" d="M1027.44,-743.277C1032.7,-740.668 1037.74,-737.498 1042,-733.66 1067.99,-710.243 1050.95,-685.849 1078,-663.66 1088.94,-654.687 1102.81,-648.809 1116.41,-644.959"/>
<polygon fill="#757575" stroke="#757575" points="1117.37,-648.327 1126.22,-642.498 1115.67,-641.537 1117.37,-648.327"/>
</g>
<!-- lib/timeWindowQuantiles.js -->
<g id="node30" class="node"><title>lib/timeWindowQuantiles.js</title>
<path fill="none" stroke="#cfffac" d="M1254.33,-805.16C1254.33,-805.16 1085.67,-805.16 1085.67,-805.16 1081.83,-805.16 1078,-801.327 1078,-797.493 1078,-797.493 1078,-789.827 1078,-789.827 1078,-785.993 1081.83,-782.16 1085.67,-782.16 1085.67,-782.16 1254.33,-782.16 1254.33,-782.16 1258.17,-782.16 1262,-785.993 1262,-789.827 1262,-789.827 1262,-797.493 1262,-797.493 1262,-801.327 1258.17,-805.16 1254.33,-805.16"/>
<text text-anchor="middle" x="1170" y="-789.96" font-family="Arial" font-size="14.00" fill="#cfffac">lib/timeWindowQuantiles.js</text>
</g>
<!-- lib/summary.js&#45;&gt;lib/timeWindowQuantiles.js -->
<g id="edge62" class="edge"><title>lib/summary.js&#45;&gt;lib/timeWindowQuantiles.js</title>
<path fill="none" stroke="#757575" d="M1040.35,-765.941C1061.08,-770.407 1085.08,-775.578 1106.7,-780.236"/>
<polygon fill="#757575" stroke="#757575" points="1106.25,-783.72 1116.76,-782.405 1107.73,-776.877 1106.25,-783.72"/>
</g>
<!-- lib/metric.js&#45;&gt;lib/registry.js -->
<g id="edge37" class="edge"><title>lib/metric.js&#45;&gt;lib/registry.js</title>
<path fill="none" stroke="#757575" d="M1179.11,-649.012C1195.41,-671.976 1233.06,-725.751 1262,-772.66 1279.13,-800.436 1276.41,-812.185 1298,-836.66 1313.04,-853.713 1333.68,-868.913 1350.36,-879.747"/>
<polygon fill="#757575" stroke="#757575" points="1348.84,-882.923 1359.16,-885.301 1352.57,-877.003 1348.84,-882.923"/>
</g>
<!-- lib/metric.js&#45;&gt;lib/validation.js -->
<g id="edge39" class="edge"><title>lib/metric.js&#45;&gt;lib/validation.js</title>
<path fill="none" stroke="#757575" d="M1211.1,-626.284C1244.77,-616.735 1293.02,-603.048 1329.17,-592.795"/>
<polygon fill="#757575" stroke="#757575" points="1330.35,-596.097 1339.02,-590.001 1328.44,-589.363 1330.35,-596.097"/>
</g>
<!-- lib/metric.js&#45;&gt;lib/util.js -->
<g id="edge38" class="edge"><title>lib/metric.js&#45;&gt;lib/util.js</title>
<path fill="none" stroke="#757575" d="M1213.59,-646.914C1282.76,-661.941 1418.69,-691.475 1487.68,-706.465"/>
<polygon fill="#757575" stroke="#757575" points="1487.24,-709.951 1497.75,-708.654 1488.73,-703.111 1487.24,-709.951"/>
</g>
<!-- lib/metrics/eventLoopLag.js&#45;&gt;lib/gauge.js -->
<g id="edge41" class="edge"><title>lib/metrics/eventLoopLag.js&#45;&gt;lib/gauge.js</title>
<path fill="none" stroke="#757575" d="M844.274,-371.591C862.685,-375.741 880.96,-382.595 896,-393.66 923.862,-414.158 906.234,-439.583 932,-462.66 933.901,-464.363 935.956,-465.935 938.116,-467.384"/>
<polygon fill="#757575" stroke="#757575" points="936.442,-470.459 946.859,-472.391 939.92,-464.384 936.442,-470.459"/>
</g>
<!-- lib/metrics/gc.js&#45;&gt;lib/histogram.js -->
<g id="edge42" class="edge"><title>lib/metrics/gc.js&#45;&gt;lib/histogram.js</title>
<path fill="none" stroke="#757575" d="M807.158,-722.067C841.347,-720.46 885.421,-718.388 921.261,-716.703"/>
<polygon fill="#757575" stroke="#757575" points="921.791,-720.182 931.616,-716.217 921.463,-713.19 921.791,-720.182"/>
</g>
<!-- lib/metrics/heapSizeAndUsed.js&#45;&gt;lib/gauge.js -->
<g id="edge43" class="edge"><title>lib/metrics/heapSizeAndUsed.js&#45;&gt;lib/gauge.js</title>
<path fill="none" stroke="#757575" d="M497.362,-655.972C608.081,-674.355 831.166,-704.829 896,-664.66 953.264,-629.181 975.253,-545.145 982.672,-505.317"/>
<polygon fill="#757575" stroke="#757575" points="986.143,-505.782 984.395,-495.332 979.245,-504.591 986.143,-505.782"/>
</g>
<!-- lib/metrics/helpers/safeMemoryUsage.js -->
<g id="node27" class="node"><title>lib/metrics/helpers/safeMemoryUsage.js</title>
<path fill="none" stroke="#cfffac" d="M875.833,-656.16C875.833,-656.16 626.167,-656.16 626.167,-656.16 622.333,-656.16 618.5,-652.327 618.5,-648.493 618.5,-648.493 618.5,-640.827 618.5,-640.827 618.5,-636.993 622.333,-633.16 626.167,-633.16 626.167,-633.16 875.833,-633.16 875.833,-633.16 879.667,-633.16 883.5,-636.993 883.5,-640.827 883.5,-640.827 883.5,-648.493 883.5,-648.493 883.5,-652.327 879.667,-656.16 875.833,-656.16"/>
<text text-anchor="middle" x="751" y="-640.96" font-family="Arial" font-size="14.00" fill="#cfffac">lib/metrics/helpers/safeMemoryUsage.js</text>
</g>
<!-- lib/metrics/heapSizeAndUsed.js&#45;&gt;lib/metrics/helpers/safeMemoryUsage.js -->
<g id="edge44" class="edge"><title>lib/metrics/heapSizeAndUsed.js&#45;&gt;lib/metrics/helpers/safeMemoryUsage.js</title>
<path fill="none" stroke="#757575" d="M539.663,-644.66C561.622,-644.66 585.101,-644.66 608.12,-644.66"/>
<polygon fill="#757575" stroke="#757575" points="608.302,-648.16 618.302,-644.66 608.302,-641.16 608.302,-648.16"/>
</g>
<!-- lib/metrics/heapSpacesSizeAndUsed.js&#45;&gt;lib/gauge.js -->
<g id="edge45" class="edge"><title>lib/metrics/heapSpacesSizeAndUsed.js&#45;&gt;lib/gauge.js</title>
<path fill="none" stroke="#757575" d="M881.063,-336.506C886.365,-339.378 891.382,-342.739 896,-346.66 937.15,-381.598 895.188,-423.178 932,-462.66 933.363,-464.122 934.84,-465.484 936.406,-466.752"/>
<polygon fill="#757575" stroke="#757575" points="934.574,-469.737 944.843,-472.343 938.441,-463.902 934.574,-469.737"/>
</g>
<!-- lib/metrics/osMemoryHeap.js&#45;&gt;lib/gauge.js -->
<g id="edge46" class="edge"><title>lib/metrics/osMemoryHeap.js&#45;&gt;lib/gauge.js</title>
<path fill="none" stroke="#757575" d="M478.185,-596.967C563.426,-616.391 754.63,-648.224 896,-584.66 932.875,-568.08 960.854,-528.127 975.227,-503.733"/>
<polygon fill="#757575" stroke="#757575" points="978.33,-505.357 980.22,-494.932 972.241,-501.902 978.33,-505.357"/>
</g>
<!-- lib/metrics/osMemoryHeap.js&#45;&gt;lib/metrics/helpers/safeMemoryUsage.js -->
<g id="edge47" class="edge"><title>lib/metrics/osMemoryHeap.js&#45;&gt;lib/metrics/helpers/safeMemoryUsage.js</title>
<path fill="none" stroke="#757575" d="M492.089,-596.969C525.41,-603.415 568.037,-611.591 606,-618.66 628.952,-622.934 653.983,-627.49 676.642,-631.575"/>
<polygon fill="#757575" stroke="#757575" points="676.069,-635.028 686.531,-633.355 677.309,-628.138 676.069,-635.028"/>
</g>
<!-- lib/metrics/osMemoryHeapLinux.js -->
<g id="node29" class="node"><title>lib/metrics/osMemoryHeapLinux.js</title>
<path fill="none" stroke="#c6c5fe" d="M858.333,-576.16C858.333,-576.16 643.667,-576.16 643.667,-576.16 639.833,-576.16 636,-572.327 636,-568.493 636,-568.493 636,-560.827 636,-560.827 636,-556.993 639.833,-553.16 643.667,-553.16 643.667,-553.16 858.333,-553.16 858.333,-553.16 862.167,-553.16 866,-556.993 866,-560.827 866,-560.827 866,-568.493 866,-568.493 866,-572.327 862.167,-576.16 858.333,-576.16"/>
<text text-anchor="middle" x="751" y="-560.96" font-family="Arial" font-size="14.00" fill="#c6c5fe">lib/metrics/osMemoryHeapLinux.js</text>
</g>
<!-- lib/metrics/osMemoryHeap.js&#45;&gt;lib/metrics/osMemoryHeapLinux.js -->
<g id="edge48" class="edge"><title>lib/metrics/osMemoryHeap.js&#45;&gt;lib/metrics/osMemoryHeapLinux.js</title>
<path fill="none" stroke="#757575" d="M531.389,-579.188C561.17,-577.209 594.338,-575.005 625.656,-572.923"/>
<polygon fill="#757575" stroke="#757575" points="626.007,-576.408 635.753,-572.252 625.543,-569.423 626.007,-576.408"/>
</g>
<!-- lib/metrics/processCpuTotal.js&#45;&gt;lib/counter.js -->
<g id="edge50" class="edge"><title>lib/metrics/processCpuTotal.js&#45;&gt;lib/counter.js</title>
<path fill="none" stroke="#757575" d="M852.562,-132.335C868.482,-136.785 883.717,-143.815 896,-154.66 976.473,-225.708 985.781,-367.553 986.292,-421.326"/>
<polygon fill="#757575" stroke="#757575" points="982.792,-421.406 986.29,-431.407 989.792,-421.408 982.792,-421.406"/>
</g>
<!-- lib/metrics/processHandles.js&#45;&gt;lib/gauge.js -->
<g id="edge51" class="edge"><title>lib/metrics/processHandles.js&#45;&gt;lib/gauge.js</title>
<path fill="none" stroke="#757575" d="M532.12,-278.074C651.185,-268.674 842.662,-261.444 896,-305.66 951.114,-351.349 885.192,-408.494 932,-462.66 933.153,-463.994 934.401,-465.244 935.727,-466.415"/>
<polygon fill="#757575" stroke="#757575" points="933.845,-469.372 944.028,-472.296 937.891,-463.659 933.845,-469.372"/>
</g>
<!-- lib/metrics/helpers/processMetricsHelpers.js -->
<g id="node28" class="node"><title>lib/metrics/helpers/processMetricsHelpers.js</title>
<path fill="none" stroke="#cfffac" d="M888.333,-258.16C888.333,-258.16 613.667,-258.16 613.667,-258.16 609.833,-258.16 606,-254.327 606,-250.493 606,-250.493 606,-242.827 606,-242.827 606,-238.993 609.833,-235.16 613.667,-235.16 613.667,-235.16 888.333,-235.16 888.333,-235.16 892.167,-235.16 896,-238.993 896,-242.827 896,-242.827 896,-250.493 896,-250.493 896,-254.327 892.167,-258.16 888.333,-258.16"/>
<text text-anchor="middle" x="751" y="-242.96" font-family="Arial" font-size="14.00" fill="#cfffac">lib/metrics/helpers/processMetricsHelpers.js</text>
</g>
<!-- lib/metrics/processHandles.js&#45;&gt;lib/metrics/helpers/processMetricsHelpers.js -->
<g id="edge52" class="edge"><title>lib/metrics/processHandles.js&#45;&gt;lib/metrics/helpers/processMetricsHelpers.js</title>
<path fill="none" stroke="#757575" d="M520.766,-276.402C561.786,-271.08 610.906,-264.707 653.137,-259.228"/>
<polygon fill="#757575" stroke="#757575" points="653.687,-262.686 663.153,-257.928 652.786,-255.744 653.687,-262.686"/>
</g>
<!-- lib/metrics/processMaxFileDescriptors.js&#45;&gt;lib/gauge.js -->
<g id="edge53" class="edge"><title>lib/metrics/processMaxFileDescriptors.js&#45;&gt;lib/gauge.js</title>
<path fill="none" stroke="#757575" d="M818.117,-512.358C854.493,-506.14 899.019,-498.529 933.074,-492.707"/>
<polygon fill="#757575" stroke="#757575" points="934.018,-496.097 943.285,-490.962 932.839,-489.197 934.018,-496.097"/>
</g>
<!-- lib/metrics/processOpenFileDescriptors.js&#45;&gt;lib/gauge.js -->
<g id="edge54" class="edge"><title>lib/metrics/processOpenFileDescriptors.js&#45;&gt;lib/gauge.js</title>
<path fill="none" stroke="#757575" d="M570.095,-486.674C687.351,-485.824 850.406,-484.643 933.21,-484.043"/>
<polygon fill="#757575" stroke="#757575" points="933.41,-487.541 943.384,-483.969 933.359,-480.542 933.41,-487.541"/>
</g>
<!-- lib/metrics/processRequests.js&#45;&gt;lib/gauge.js -->
<g id="edge55" class="edge"><title>lib/metrics/processRequests.js&#45;&gt;lib/gauge.js</title>
<path fill="none" stroke="#757575" d="M510.022,-235.362C539.871,-231.455 574.471,-227.578 606,-225.66 734.651,-217.835 798.258,-141.644 896,-225.66 976.795,-295.11 865.395,-379.504 932,-462.66 932.983,-463.887 934.046,-465.042 935.178,-466.13"/>
<polygon fill="#757575" stroke="#757575" points="933.387,-469.163 943.483,-472.376 937.595,-463.568 933.387,-469.163"/>
</g>
<!-- lib/metrics/processRequests.js&#45;&gt;lib/metrics/helpers/processMetricsHelpers.js -->
<g id="edge56" class="edge"><title>lib/metrics/processRequests.js&#45;&gt;lib/metrics/helpers/processMetricsHelpers.js</title>
<path fill="none" stroke="#757575" d="M536.16,-246.66C555.211,-246.66 575.505,-246.66 595.717,-246.66"/>
<polygon fill="#757575" stroke="#757575" points="595.949,-250.16 605.949,-246.66 595.949,-243.16 595.949,-250.16"/>
</g>
<!-- lib/metrics/processStartTime.js&#45;&gt;lib/gauge.js -->
<g id="edge57" class="edge"><title>lib/metrics/processStartTime.js&#45;&gt;lib/gauge.js</title>
<path fill="none" stroke="#757575" d="M536.533,-453.533C654.068,-461.411 842.182,-474.02 933.229,-480.123"/>
<polygon fill="#757575" stroke="#757575" points="933.102,-483.622 943.314,-480.799 933.57,-476.638 933.102,-483.622"/>
</g>
<!-- lib/metrics/version.js&#45;&gt;lib/gauge.js -->
<g id="edge58" class="edge"><title>lib/metrics/version.js&#45;&gt;lib/gauge.js</title>
<path fill="none" stroke="#757575" d="M504.757,-408.635C596.024,-413.501 759.292,-425.709 896,-454.66 912.731,-458.203 930.75,-463.665 946.237,-468.898"/>
<polygon fill="#757575" stroke="#757575" points="945.415,-472.317 956.01,-472.281 947.705,-465.702 945.415,-472.317"/>
</g>
<!-- lib/metrics/osMemoryHeapLinux.js&#45;&gt;lib/gauge.js -->
<g id="edge49" class="edge"><title>lib/metrics/osMemoryHeapLinux.js&#45;&gt;lib/gauge.js</title>
<path fill="none" stroke="#757575" d="M864.112,-553.322C875.059,-550.729 885.857,-547.552 896,-543.66 921.915,-533.716 947.908,-515.252 965.25,-501.422"/>
<polygon fill="#757575" stroke="#757575" points="967.502,-504.102 973.029,-495.063 963.072,-498.682 967.502,-504.102"/>
</g>
</g>
</svg>
