<?xml version="1.0" encoding="UTF-8" standalone="no"?>
<!DOCTYPE svg PUBLIC "-//W3C//DTD SVG 1.1//EN"
 "http://www.w3.org/Graphics/SVG/1.1/DTD/svg11.dtd">
<!-- Generated by graphviz version 2.40.1 (20161225.0304)
 -->
<!-- Title: %0 Pages: 1 -->
<svg width="315pt" height="54pt"
 viewBox="0.00 0.00 315.36 54.40" xmlns="http://www.w3.org/2000/svg" xmlns:xlink="http://www.w3.org/1999/xlink">
<g id="graph0" class="graph" transform="scale(1 1) rotate(0) translate(4 50.4)">
<title>%0</title>
<polygon fill="#ffffff" stroke="transparent" points="-4,4 -4,-50.4 311.3578,-50.4 311.3578,4 -4,4"/>
<text text-anchor="middle" x="153.6789" y="-28" font-family="Roboto Condensed, sans-serif" font-size="16.00" fill="#000000">prom&#45;client</text>
<!-- prom&#45;client@12.0.0 -->
<g id="node1" class="node">
<title>prom&#45;client@12.0.0</title>
<path fill="none" stroke="#000000" d="M88.4533,-19.3011C88.4533,-19.3011 6.4938,-19.3011 6.4938,-19.3011 3.2601,-19.3011 .0264,-16.0674 .0264,-12.8337 .0264,-12.8337 .0264,-6.3663 .0264,-6.3663 .0264,-3.1326 3.2601,.1011 6.4938,.1011 6.4938,.1011 88.4533,.1011 88.4533,.1011 91.687,.1011 94.9207,-3.1326 94.9207,-6.3663 94.9207,-6.3663 94.9207,-12.8337 94.9207,-12.8337 94.9207,-16.0674 91.687,-19.3011 88.4533,-19.3011"/>
<text text-anchor="middle" x="47.4735" y="-6.3" font-family="Roboto Condensed, sans-serif" font-size="11.00" fill="#000000">prom&#45;client@12.0.0</text>
</g>
<!-- tdigest@0.1.1 -->
<g id="node2" class="node">
<title>tdigest@0.1.1</title>
<path fill="none" stroke="#000000" d="M192.1734,-19.3011C192.1734,-19.3011 137.1822,-19.3011 137.1822,-19.3011 133.9485,-19.3011 130.7148,-16.0674 130.7148,-12.8337 130.7148,-12.8337 130.7148,-6.3663 130.7148,-6.3663 130.7148,-3.1326 133.9485,.1011 137.1822,.1011 137.1822,.1011 192.1734,.1011 192.1734,.1011 195.4071,.1011 198.6408,-3.1326 198.6408,-6.3663 198.6408,-6.3663 198.6408,-12.8337 198.6408,-12.8337 198.6408,-16.0674 195.4071,-19.3011 192.1734,-19.3011"/>
<text text-anchor="middle" x="164.6778" y="-6.3" font-family="Roboto Condensed, sans-serif" font-size="11.00" fill="#000000">tdigest@0.1.1</text>
</g>
<!-- prom&#45;client@12.0.0&#45;&gt;tdigest@0.1.1 -->
<g id="edge1" class="edge">
<title>prom&#45;client@12.0.0&#45;&gt;tdigest@0.1.1</title>
<path fill="none" stroke="#000000" d="M95.145,-9.6C103.5226,-9.6 112.2091,-9.6 120.4866,-9.6"/>
<polygon fill="#000000" stroke="#000000" points="120.6988,-13.1001 130.6988,-9.6 120.6987,-6.1001 120.6988,-13.1001"/>
</g>
<!-- bintrees@1.0.2 -->
<g id="node3" class="node">
<title>bintrees@1.0.2</title>
<path fill="none" stroke="#000000" d="M300.8651,-19.3011C300.8651,-19.3011 240.9012,-19.3011 240.9012,-19.3011 237.6675,-19.3011 234.4338,-16.0674 234.4338,-12.8337 234.4338,-12.8337 234.4338,-6.3663 234.4338,-6.3663 234.4338,-3.1326 237.6675,.1011 240.9012,.1011 240.9012,.1011 300.8651,.1011 300.8651,.1011 304.0988,.1011 307.3325,-3.1326 307.3325,-6.3663 307.3325,-6.3663 307.3325,-12.8337 307.3325,-12.8337 307.3325,-16.0674 304.0988,-19.3011 300.8651,-19.3011"/>
<text text-anchor="middle" x="270.8832" y="-6.3" font-family="Roboto Condensed, sans-serif" font-size="11.00" fill="#000000">bintrees@1.0.2</text>
</g>
<!-- tdigest@0.1.1&#45;&gt;bintrees@1.0.2 -->
<g id="edge2" class="edge">
<title>tdigest@0.1.1&#45;&gt;bintrees@1.0.2</title>
<path fill="none" stroke="#000000" d="M198.5738,-9.6C206.7768,-9.6 215.6864,-9.6 224.3584,-9.6"/>
<polygon fill="#000000" stroke="#000000" points="224.3728,-13.1001 234.3728,-9.6 224.3727,-6.1001 224.3728,-13.1001"/>
</g>
</g>
</svg>
